<?xml version="1.0" encoding="utf-8"?>
<!-- Generator: Adobe Illustrator 25.2.0, SVG Export Plug-In . SVG Version: 6.00 Build 0)  -->
<svg version="1.1" id="Layer_1" xmlns="http://www.w3.org/2000/svg" xmlns:xlink="http://www.w3.org/1999/xlink" x="0px" y="0px"
	 viewBox="0 0 136.9 94.7" style="enable-background:new 0 0 136.9 94.7;" xml:space="preserve">
<style type="text/css">
	.st0{fill:#231F20;}
	.st1{fill:#FFFFFF;stroke:#231F20;stroke-width:4;stroke-linecap:round;stroke-linejoin:round;}
	.st2{fill:none;stroke:#231F20;stroke-width:4;stroke-linecap:round;stroke-linejoin:round;}
	.st3{fill:#FFFFFF;stroke:#231F20;stroke-width:4;stroke-linecap:round;stroke-miterlimit:10;}
</style>
<g>
	<path class="st0" d="M21.7,76.8c2.8-0.8,4.7-3.4,4.6-6.3c0-7.2-7-7.2-12.4-7.2H5.1v29.4h10c5.7,0,12.8,0,12.8-8.1
		C27.9,80.9,25.3,77.6,21.7,76.8z M13.4,83.6v-5c3.5,0,7.3,0.3,7.3,2.7C20.7,82.4,19.5,83.6,13.4,83.6z M13.4,75.2v-5
		c3.5,0,7.3,0.3,7.3,2.7C20.7,74.1,19.5,75.2,13.4,75.2z"/>
	<path class="st0" d="M40.9,73.6v3.3h9.9v1.9h-9.9v3.5H53v10.3H30.6V63.3H53v10.3H40.9z"/>
	<path class="st0" d="M78.7,82.4v10.3H57.6V63.3h10.5v19.1H78.7z"/>
	<path class="st0" d="M103.4,82.4v10.3H82.4V63.3h10.5v19.1H103.4z"/>
	<polygon class="st0" points="136.9,92.7 125.2,92.7 121.3,85.1 117.4,92.7 105.7,92.7 121.3,62 	"/>
</g>
<g>
	<rect x="53.3" y="30.3" class="st1" width="36.8" height="23.1"/>
	<path class="st1" d="M81.7,37.5c1.6,2.3,4.1,3.6,6.9,3.7c5.1,0,9.2-4.9,9.2-10.9s-4.1-10.9-9.2-10.9c-0.9,0-1.7,0.2-2.5,0.4
		c-3.2-7.9-12.3-11.7-20.2-8.4c-4,1.7-7.2,4.9-8.6,9c-1.2-0.7-2.5-1-3.9-1c-5.1-0.1-9.2,4.8-9.2,10.8s4.1,10.9,9.2,10.9
		c3.1-0.1,5.9-1.8,7.5-4.5"/>
	<path class="st2" d="M81.7,37.5c1.6,2.3,4.1,3.6,6.9,3.7c5.1,0,9.2-4.9,9.2-10.9s-4.1-10.9-9.2-10.9c-0.9,0-1.7,0.2-2.5,0.4
		c-3.2-7.9-12.3-11.7-20.2-8.4c-4,1.7-7.2,4.9-8.6,9c-1.2-0.7-2.5-1-3.9-1c-5.1-0.1-9.2,4.8-9.2,10.8s4.1,10.9,9.2,10.9
		c3.1-0.1,5.9-1.8,7.5-4.5"/>
	<path class="st3" d="M56.3,23.7c0-8.6,6.9-15.5,15.5-15.5s15.5,6.9,15.5,15.5"/>
</g>
</svg>
