<svg xmlns="http://www.w3.org/2000/svg" viewBox="0 0 194.86 49.18"><defs><style>.cls-1{fill:#231f20;}.cls-2,.cls-4{fill:#fff;}.cls-2,.cls-3,.cls-4{stroke:#231f20;stroke-linecap:round;stroke-width:4px;}.cls-2,.cls-3{stroke-linejoin:round;}.cls-3{fill:none;}.cls-4{stroke-miterlimit:10;}</style></defs><g id="Layer_2" data-name="Layer 2"><g id="Layer_1-2" data-name="Layer 1"><path class="cls-1" d="M79.69,31.3A6.18,6.18,0,0,0,84.27,25c0-7.22-7-7.22-12.36-7.22H63.05v29.4h10c5.67,0,12.77,0,12.77-8.1A7.89,7.89,0,0,0,79.69,31.3Zm-8.33,6.77v-5c3.46,0,7.3.28,7.3,2.67C78.66,36.92,77.44,38.07,71.36,38.07Zm0-8.36v-5c3.46,0,7.3.27,7.3,2.67C78.66,28.56,77.44,29.71,71.36,29.71Z"/><path class="cls-1" d="M98.89,28.11v3.32h9.87v1.93H98.89v3.48H111V47.18H88.55V17.77H111V28.11Z"/><path class="cls-1" d="M136.69,36.84V47.18H115.6V17.77h10.5V36.84Z"/><path class="cls-1" d="M161.43,36.84V47.18H140.34V17.77h10.5V36.84Z"/><polygon class="cls-1" points="194.86 47.18 183.14 47.18 179.27 39.58 175.41 47.18 163.69 47.18 179.27 16.52 194.86 47.18"/><rect class="cls-2" x="11.17" y="24.12" width="36.83" height="23.06"/><path class="cls-2" d="M39.56,31.3A8.64,8.64,0,0,0,46.43,35c5.1,0,9.22-4.88,9.22-10.9s-4.12-10.91-9.22-10.91a8,8,0,0,0-2.54.43,15.46,15.46,0,0,0-28.82.58,8,8,0,0,0-3.85-1C6.13,13.14,2,18,2,24.05S6.13,35,11.22,35a8.84,8.84,0,0,0,7.45-4.5"/><path class="cls-3" d="M39.56,31.3A8.64,8.64,0,0,0,46.43,35c5.1,0,9.22-4.88,9.22-10.9s-4.12-10.91-9.22-10.91a8,8,0,0,0-2.54.43,15.46,15.46,0,0,0-28.82.58,8,8,0,0,0-3.85-1C6.13,13.14,2,18,2,24.05S6.13,35,11.22,35a8.84,8.84,0,0,0,7.45-4.5"/><path class="cls-4" d="M14.11,17.48a15.48,15.48,0,1,1,31,0"/></g></g></svg>